{"title":"Rise of the Planet of the Apes 2011 BRRip XViD-NiTRO","uid":6799761,"size":1186696492,"categoryP":"video","categoryS":"movies","magnet":"?xt=urn:btih:4275db618c3da0f217dddeac9f5940c9b69a4005&amp;dn=Rise+of+the+Planet+of+the+Apes+2011+BRRip+XViD-NiTRO&amp;tr=udp%3A%2F%2Ftracker.openbittorrent.com%3A80&amp;tr=udp%3A%2F%2Fopen.demonii.com%3A1337&amp;tr=udp%3A%2F%2Ftracker.coppersurfer.tk%3A6969&amp;tr=udp%3A%2F%2Fexodus.desync.com%3A6969","seeders":3,"leechers":1,"uploader":"Test_Verify","files":1,"time":1320658996,"description":"Rise of the Planet of the Apes 2011 BDRip XViD-NiTRO\nSource: CHD bluray (thanks) &lt;a href=&quot;\nhttp://www.imdb.com/title/tt0133152/&quot; rel=&quot;nofollow&quot; target=&quot;_NEW&quot;&gt;\nhttp://www.imdb.com/title/tt0133152/&lt;/a&gt;\n\nGeneral\nFormat                           : AVI\nFormat/Info                      : Audio Video Interleave\nFormat profile                   : OpenDML\nFile size                        : 1.11 GiB\nDuration                         : 1h 44mn\nOverall bit rate                 : 1 508 Kbps\nWriting application              : Lavf51.12.1\n\nVideo\nID                               : 0\nFormat                           : AVC\nFormat/Info                      : Advanced Video Codec\nFormat profile                   : &lt;a class=&quot;__cf_email__&quot; href=&quot;/cdn-cgi/l/email-protection&quot; data-cfemail=&quot;f1b39082949d989f94b1bdc0dfc2&quot;&gt;[email&amp;#160;protected]&lt;/a&gt;&lt;script cf-hash='f9e31' type=&quot;text/javascript&quot;&gt;\n/* &lt;![CDATA[ */!function(){try{var t=&quot;currentScript&quot;in document?document.currentScript:function(){for(var t=document.getElementsByTagName(&quot;script&quot;),e=t.length;e--;)if(t[e].getAttribute(&quot;cf-hash&quot;))return t[e]}();if(t&amp;&amp;t.previousSibling){var e,r,n,i,c=t.previousSibling,a=c.getAttribute(&quot;data-cfemail&quot;);if(a){for(e=&quot;&quot;,r=parseInt(a.substr(0,2),16),n=2;a.length-n;n+=2)i=parseInt(a.substr(n,2),16)^r,e+=String.fromCharCode(i);e=document.createTextNode(e),c.parentNode.replaceChild(e,c)}}}catch(u){}}();/* ]]&gt; */&lt;/script&gt;\nFormat settings, CABAC           : No\nFormat settings, ReFrames        : 1 frame\nFormat settings, GOP             : M=1, N=12\nCodec ID                         : H264\nDuration                         : 1h 44mn\nBit rate                         : 196 Kbps\nWidth                            : 640 pixels\nHeight                           : 272 pixels\nDisplay aspect ratio             : 2.35:1\nFrame rate                       : 23.976 fps\nColor space                      : YUV\nChroma subsampling               : 4:2:0\nBit depth                        : 8 bits\nScan type                        : Progressive\nBits/(Pixel*Frame)               : 0.047\nStream size                      : 147 MiB (13%)\n\nAudio\nID                               : 1\nFormat                           : MPEG Audio\nCodec ID                         : 55\nCodec ID/Hint                    : MP3\nDuration                         : 1h 44mn\nBit rate                         : 128 Kbps\nChannel(s)                       : 2 channels\nSampling rate                    : 44.1 KHz\nCompression mode                 : Lossy\nStream size                      : 6.59 MiB (1%)\nAlignment                        : Aligned on interleaves\nInterleave, duration             : 47 ms (1.12 video frame)\n\n\n\n\n","torrent":{"xt":"urn:btih:4275db618c3da0f217dddeac9f5940c9b69a4005","amp;dn":"Rise+of+the+Planet+of+the+Apes+2011+BRRip+XViD-NiTRO","amp;tr":["udp%3A%2F%2Ftracker.openbittorrent.com%3A80","udp%3A%2F%2Fopen.demonii.com%3A1337","udp%3A%2F%2Ftracker.coppersurfer.tk%3A6969","udp%3A%2F%2Fexodus.desync.com%3A6969"],"infoHash":"4275db618c3da0f217dddeac9f5940c9b69a4005","infoHashBuffer":{"type":"Buffer","data":[66,117,219,97,140,61,160,242,23,221,222,172,159,89,64,201,182,154,64,5]},"announce":[],"urlList":[]}}